<?xml version="1.0" encoding="utf-8"?>
<!-- Generator: Adobe Illustrator 25.1.0, SVG Export Plug-In . SVG Version: 6.00 Build 0)  -->
<svg version="1.1" id="Layer_1" xmlns="http://www.w3.org/2000/svg" xmlns:xlink="http://www.w3.org/1999/xlink" x="0px" y="0px"
	 viewBox="0 0 24 24" style="enable-background:new 0 0 24 24;" xml:space="preserve">
<style type="text/css">
	.st0{fill:#FFFFFF;}
</style>
<path class="st0" d="M12,16.8c2.6,0,4.7-2.1,4.7-4.7c0-1.4-0.6-2.7-1.6-3.5c-0.3-0.3-0.7-0.6-1.2-0.7c-0.6-0.3-1.2-0.4-1.9-0.4
	S10.6,7.6,10,7.8C9.6,8,9.2,8.3,8.9,8.6c-1,0.9-1.6,2.1-1.6,3.5C7.3,14.7,9.4,16.8,12,16.8z M12,8.6c1.9,0,3.5,1.6,3.5,3.5
	s-1.6,3.5-3.5,3.5S8.5,14,8.5,12.1C8.5,10.2,10.1,8.6,12,8.6z M17.2,9H24v10.3c0,2.6-2.1,4.7-4.7,4.7H4.8C2.2,24,0,21.9,0,19.3V9
	h6.7c-0.5,0.9-0.9,2-0.9,3.1c0,3.4,2.7,6.1,6.1,6.1s6.1-2.7,6.1-6.1C18.1,11,17.8,9.9,17.2,9z M19.3,0H7v5H6V0H5v5H4V0.1
	C3.7,0.1,3.3,0.2,3,0.3V5H2V0.9C0.8,1.8,0,3.1,0,4.7V8h7.5c1.2-1.3,2.8-2,4.5-2c1.7,0,3.4,0.7,4.5,2H24V4.7C24,2.1,21.9,0,19.3,0z
	 M22,5.3C22,5.7,21.7,6,21.3,6h-2.5C18.3,6,18,5.7,18,5.3V2.7C18,2.3,18.3,2,18.7,2h2.5C21.7,2,22,2.3,22,2.7C22,2.7,22,5.3,22,5.3z
	"/>
</svg>
