<?xml version="1.0" encoding="utf-8"?>
<!-- Generator: Adobe Illustrator 25.0.1, SVG Export Plug-In . SVG Version: 6.00 Build 0)  -->
<svg version="1.1" id="Layer_1" xmlns="http://www.w3.org/2000/svg" xmlns:xlink="http://www.w3.org/1999/xlink" x="0px" y="0px"
	 viewBox="0 0 135.77 173.62" style="enable-background:new 0 0 135.77 173.62;" xml:space="preserve">
<style type="text/css">
	.st0{fill:url(#SVGID_1_);}
</style>
<linearGradient id="SVGID_1_" gradientUnits="userSpaceOnUse" x1="-3.0867" y1="16.1883" x2="112.0659" y2="158.39">
	<stop  offset="0" style="stop-color:#0E73B6"/>
	<stop  offset="0.1878" style="stop-color:#616E95"/>
	<stop  offset="0.4842" style="stop-color:#966468"/>
	<stop  offset="0.7278" style="stop-color:#B75B46"/>
	<stop  offset="0.906" style="stop-color:#CA532F"/>
	<stop  offset="1" style="stop-color:#D05027"/>
</linearGradient>
<path class="st0" d="M92.55,50.21c0.68-3.38,0.78-6.88,0-10.59c-0.92-4.36-2.4-8.27-5.17-11.62c-4.83-5.83-11.33-7.58-18.58-7.04
	c-1.59,0.12-2.1-0.11-2.05-1.77c0.11-4.25-1.68-7.85-4.8-10.51c-6.94-5.91-15.14-8.41-24.2-8.24c-4.94,0.1-8.71,2.79-11.72,6.16
	c-3.51,3.92-7.5,5.26-12.56,4.96c-3.25-0.2-6.55,0.19-9.81,0.52c-1.41,0.14-3.44,0.66-3.42,2.15c0.01,1.51,2.09,1.38,3.4,1.67
	c0.2,0.05,0.42,0.03,0.62,0.05c4.38,0.56,8.77,0.59,13.17,0.51c1.64-0.03,2.27,0.44,2,2.15c-0.67,4.24-1.48,8.37-4.66,11.6
	c-0.88,0.9-1.55,1.98-2.33,2.97c-1.76,2.22-1.8,2.33,0.71,3.48c1.82,0.83,2.54,1.89,1.94,3.88c-1.4,4.64-0.27,9.28,0.08,13.91
	c0.1,1.28,0.83,1.99,1.99,2.41c2.64,0.96,5.38,0.61,8.08,0.75c0.67,0.04,1.6-0.37,1.96,0.27c0.42,0.74-0.33,1.48-0.83,1.97
	c-2.19,2.17-2.4,4.66-1.68,7.51c0.11,0.44,0.2,0.88,0.28,1.32C15.46,79.7,9.7,94.04,9.7,109.7c0,34.62,28.16,62.78,62.78,62.78
	c34.62,0,62.78-28.16,62.78-62.78C135.25,82.1,117.35,58.61,92.55,50.21z M72.48,163.3c-15.73,0-29.9-6.81-39.71-17.65
	c-1.16-1.83-2.1-3.8-2.84-5.89c-1.24-3.52-0.84-6.96,0.28-10.46c1.48-4.67,3.48-9.12,5.5-13.56c0.6-1.31,0.9-2.61,0.85-4.04
	c-0.15-4.71,0.48-9.31,1.89-13.82c1-3.21,3.56-4.33,6.44-4.94c3.06-0.64,6.12-1.42,9.29-1.38c1.12,0.02,1.62-0.46,1.75-1.57
	c0.56-4.58,1.08-9.17-0.1-13.72c-0.31-1.2,0.07-1.4,1.12-1.55c2.82-0.44,5.68-0.8,8.26-2.18c1.02-0.54,2.61-1.24,2.18-2.44
	c-0.54-1.5-2.11-0.45-3.14-0.18c-2.98,0.77-5.7,2.22-8.47,3.57c-3.13,1.53-6.25,0.58-9.32-0.37c-0.67-0.2-0.93-0.88-1.09-1.46
	c-0.64-2.35-1.28-4.71-1.79-7.09c-0.72-3.31-1.17-6.67-1.01-10.06c0.04-1.01,0.14-2.01,0.3-3.03c0.65-4.08,1.54-8.12,2.2-12.21
	c1.11-6.85,4.84-12.23,11.43-15.25c1.2-0.55,2.38-0.74,3.65-0.54c6.16,0.96,10.94,4.31,15.06,8.79c0.62,0.67,0.64,1.06-0.26,1.57
	c-2.32,1.31-2.3,1.35,0.14,2.77c0.36,0.21,0.69,0.46,1.4,0.94c-2.81,0.85-2,1.89-0.75,3.25c1.75,1.91,3.06,4.12,3.99,6.53
	c0.13,0.34,0.26,0.68,0.37,1.02c0.18,0.54,0.22,1.02,1.05,0.95c2.35-0.21,3.03,0.42,3.25,2.72c0.19,1.94-0.1,3.68-0.8,5.24
	c-0.69,1.55-1.79,2.92-3.21,4.15c-1.49,1.29-2.48,2.78-2.9,4.71c-0.71,3.24,0.9,5.42,4.17,5.5c1.87,0.05,3.55,0.46,4.19,2.45
	c0.8,2.53,0.17,4.84-1.63,6.75c-0.88,0.93-1.83,1.71-1.53,3.2c0.31,1.54,0.99,2.36,2.72,1.9c2.39-0.63,4.84-0.58,7.29-0.45
	c1.64,0.08,3.15,0.62,4.49,1.55c0.44,0.31,1.02,0.66,0.78,1.33c-0.19,0.55-0.81,0.54-1.27,0.55c-2.15,0.06-4.07,0.76-5.92,1.84
	c-3.17,1.85-5.11,4.7-6.45,7.96c-3.12,7.65-4.48,15.63-4.38,23.87c0,0.47-0.08,0.95-0.15,1.69c2.29-0.8,4.36-1.75,6.53-2.26
	c5.18-1.19,9.85,0.3,14.1,3.26c1.04,0.73,1.68,1.18,2.02,1.64c5.83,5.06,8.06,13.69,8.92,19.61
	C101.6,156.85,87.78,163.3,72.48,163.3z M115.25,100.24c-1-1.18-1.99-2.34-2.83-3.56c-0.33-0.24-0.66-0.5-0.97-0.77
	c-1.11-0.93-2.57-1.84-2.73-3.32c-0.27-2.45-1.43-4.16-3.38-5.48c-0.96-0.65-1.05-1.27-0.29-2.21c1.32-1.62,2.64-3.26,3.1-5.39
	c0.49-2.26-0.28-3.77-2.43-4.63c-2.76-1.1-5.34-0.38-7.89,0.75c-3.08,1.35-5.13-0.03-4.96-3.41c0.06-1.32,0.42-2.62,0.49-3.94
	c0.17-2.97-0.77-4.4-3.62-4.95c-1.9-0.36-1.61-1.09-1-2.37c0.32-0.67,0.63-1.35,0.93-2.02c21.15,7.18,36.41,27.23,36.41,50.77
	c0,4.31-0.51,8.49-1.47,12.51C120.76,108.02,115.25,100.24,115.25,100.24z"/>
</svg>
