<?xml version="1.0" encoding="utf-8"?>
<!-- Generator: Adobe Illustrator 25.0.1, SVG Export Plug-In . SVG Version: 6.00 Build 0)  -->
<svg version="1.1" id="Layer_1" xmlns="http://www.w3.org/2000/svg" xmlns:xlink="http://www.w3.org/1999/xlink" x="0px" y="0px"
	 viewBox="0 0 2096.47 798.18" style="enable-background:new 0 0 2096.47 798.18;" xml:space="preserve">
<style type="text/css">
	.st0{fill:url(#SVGID_1_);}
	.st1{fill:#0872B6;}
	.st2{fill:#CF4F27;}
</style>
<g>
	<linearGradient id="SVGID_1_" gradientUnits="userSpaceOnUse" x1="-11.6995" y1="75.7778" x2="515.1451" y2="726.3767">
		<stop  offset="0" style="stop-color:#0872B6"/>
		<stop  offset="0.0235" style="stop-color:#0E71B2"/>
		<stop  offset="0.3803" style="stop-color:#606377"/>
		<stop  offset="0.6729" style="stop-color:#9C584C"/>
		<stop  offset="0.887" style="stop-color:#C15131"/>
		<stop  offset="1" style="stop-color:#CF4F27"/>
	</linearGradient>
	<path class="st0" d="M425.87,231.45c3.11-15.46,3.59-31.46,0.02-48.45c-4.2-19.95-10.96-37.83-23.65-53.16
		c-22.08-26.65-51.86-34.7-85.02-32.2c-7.27,0.57-9.62-0.5-9.39-8.11c0.52-19.45-7.67-35.89-21.97-48.1
		C254.1,14.41,216.61,2.94,175.13,3.76c-22.62,0.44-39.86,12.77-53.64,28.17c-16.07,17.91-34.32,24.05-57.48,22.68
		C49.14,53.7,34.03,55.49,19.12,57c-6.45,0.65-15.73,3.02-15.65,9.83c0.04,6.91,9.56,6.32,15.56,7.64c0.92,0.21,1.91,0.13,2.86,0.23
		c20.02,2.56,40.14,2.71,60.26,2.35c7.52-0.13,10.38,2,9.14,9.85c-3.07,19.39-6.78,38.29-21.32,53.07
		c-4.01,4.1-7.08,9.05-10.65,13.57c-8.04,10.17-8.25,10.65,3.23,15.94c8.32,3.8,11.61,8.63,8.89,17.77
		c-6.39,21.21-1.22,42.45,0.38,63.66c0.44,5.86,3.78,9.1,9.11,11.03c12.06,4.41,24.62,2.79,36.99,3.42c3.09,0.17,7.33-1.7,8.99,1.24
		c1.93,3.4-1.53,6.78-3.78,9.01c-10.02,9.93-10.96,21.34-7.66,34.34c0.5,2,0.9,4.01,1.26,6.05C73.16,366.37,46.8,431.96,46.8,503.61
		c0,158.38,128.83,287.23,287.21,287.23c158.38,0,287.22-128.85,287.22-287.23C621.23,377.36,539.34,269.84,425.87,231.45z
		 M334.02,748.84c-71.97,0-136.81-31.17-181.69-80.73c-5.29-8.38-9.62-17.37-12.98-26.93c-5.69-16.09-3.84-31.86,1.26-47.86
		c6.78-21.36,15.92-41.73,25.18-62.02c2.75-6.01,4.14-11.93,3.91-18.46c-0.69-21.55,2.21-42.59,8.63-63.24
		c4.58-14.7,16.28-19.83,29.45-22.6c14.01-2.92,28.02-6.51,42.51-6.32c5.15,0.08,7.41-2.12,8.02-7.2
		c2.58-20.96,4.96-41.94-0.46-62.76c-1.41-5.48,0.33-6.38,5.12-7.1c12.92-2,26-3.66,37.79-9.96c4.66-2.48,11.95-5.67,9.98-11.17
		c-2.48-6.87-9.66-2.06-14.37-0.84c-13.65,3.53-26.09,10.14-38.73,16.32c-14.3,6.99-28.58,2.65-42.64-1.7
		c-3.07-0.92-4.26-4.03-4.98-6.68c-2.92-10.75-5.86-21.55-8.17-32.43c-3.28-15.16-5.36-30.5-4.64-46.02
		c0.19-4.6,0.65-9.2,1.39-13.84c2.96-18.65,7.04-37.13,10.08-55.87c5.08-31.34,22.16-55.97,52.3-69.79
		c5.48-2.52,10.88-3.4,16.7-2.48c28.19,4.41,50.05,19.7,68.89,40.2c2.82,3.07,2.94,4.85-1.18,7.18c-10.63,5.99-10.5,6.2,0.65,12.69
		c1.64,0.97,3.17,2.1,6.43,4.31c-12.87,3.89-9.16,8.65-3.44,14.89c8,8.76,13.99,18.84,18.27,29.89c0.61,1.53,1.18,3.11,1.7,4.68
		c0.84,2.48,1.03,4.66,4.81,4.33c10.73-0.94,13.84,1.93,14.87,12.46c0.88,8.88-0.46,16.84-3.68,23.98
		c-3.17,7.1-8.19,13.38-14.7,18.99c-6.81,5.88-11.34,12.73-13.27,21.53c-3.23,14.83,4.12,24.78,19.07,25.14
		c8.55,0.23,16.26,2.12,19.16,11.21c3.68,11.59,0.8,22.14-7.48,30.9c-4.03,4.24-8.38,7.81-6.99,14.64
		c1.41,7.06,4.52,10.8,12.43,8.69c10.92-2.9,22.14-2.65,33.33-2.08c7.52,0.36,14.39,2.81,20.54,7.1c2.02,1.41,4.66,3,3.59,6.07
		c-0.86,2.5-3.7,2.46-5.8,2.52c-9.85,0.27-18.63,3.47-27.07,8.42c-14.49,8.49-23.4,21.49-29.53,36.44
		c-14.26,34.99-20.5,71.49-20.04,109.21c0.02,2.16-0.36,4.35-0.69,7.73c10.46-3.68,19.93-8.02,29.87-10.33
		c23.71-5.46,45.05,1.39,64.52,14.93c4.75,3.32,7.71,5.42,9.26,7.52c26.65,23.17,36.88,62.63,40.81,89.72
		C467.28,719.35,404.04,748.84,334.02,748.84z M529.7,460.34c-4.58-5.42-9.09-10.69-12.96-16.3c-1.49-1.11-3-2.31-4.45-3.53
		c-5.06-4.26-11.74-8.4-12.47-15.18c-1.22-11.22-6.53-19.05-15.46-25.08c-4.39-2.96-4.81-5.82-1.32-10.1
		c6.05-7.41,12.06-14.89,14.18-24.68c2.22-10.33-1.28-17.26-11.13-21.19c-12.65-5.02-24.43-1.72-36.1,3.42
		c-14.07,6.2-23.48-0.15-22.7-15.61c0.29-6.03,1.91-11.99,2.25-18.04c0.76-13.57-3.51-20.14-16.55-22.66
		c-8.67-1.66-7.35-5-4.58-10.84c1.47-3.07,2.88-6.15,4.26-9.24c96.76,32.85,166.57,124.57,166.57,232.29
		c0,19.7-2.33,38.86-6.74,57.23C554.91,495.94,529.7,460.34,529.7,460.34z"/>
	<g>
		<rect x="653.91" y="263.81" class="st1" width="21.58" height="450.26"/>
		<g>
			<g>
				<path class="st1" d="M861.51,452.57c0,30.26-21.13,56.09-66.52,56.09c-35.74,0-68.09-19.04-73.31-45.39l31.83-12.26
					c3.39,13.83,19.31,22.44,38.35,22.44c21.13,0,32.61-8.35,32.61-19.57c0-10.96-8.87-15.65-38.61-24.52
					c-42-12.52-59.22-28.44-59.22-55.31c0-24,17.48-52.7,64.44-52.7c27.91,0,56.35,14.87,61.57,40.96l-30.78,11.48
					c-2.35-11.48-17.22-17.74-30.52-18c-14.61-0.26-27.91,4.96-27.91,16.96c0,8.61,6.78,14.09,35.48,22.96
					C834.9,406.66,861.51,418.66,861.51,452.57z"/>
				<path class="st1" d="M1000.82,356.31h-49.05v149.22h-34.7V356.31h-49.05v-33.39h132.79V356.31z"/>
				<path class="st1" d="M1183.17,414.49c0,52.44-36,93.13-88.44,93.13c-52.44,0-88.7-40.7-88.7-93.13
					c0-52.44,36.26-93.13,88.7-93.13C1147.17,321.35,1183.17,362.05,1183.17,414.49z M1147.69,414.49
					c0-33.39-19.83-58.44-52.96-58.44c-33.39,0-53.22,25.04-53.22,58.44c0,33.13,19.83,58.18,53.22,58.18
					C1127.86,472.66,1147.69,447.62,1147.69,414.49z"/>
				<path class="st1" d="M1265.34,442.92h-25.31v62.61h-34.7V322.92h67.57c40.7,0,63.39,26.61,63.39,60c0,24.52-12,45.39-34.7,54.78
					l39.13,67.83h-39.13L1265.34,442.92z M1240.03,409.79h32.09c17.22,0,28.17-11.22,28.17-26.87c0-15.65-10.96-26.61-28.17-26.61
					h-32.09V409.79z"/>
				<path class="st1" d="M1393.69,322.92v182.62h-34.7V322.92H1393.69z"/>
				<path class="st1" d="M1543.69,472.4v33.13h-121.31V322.92h119.74v33.39h-85.05v41.48h76.96v33.13h-76.96v41.48H1543.69z"/>
				<path class="st1" d="M1699.17,452.57c0,30.26-21.13,56.09-66.52,56.09c-35.74,0-68.09-19.04-73.31-45.39l31.83-12.26
					c3.39,13.83,19.3,22.44,38.35,22.44c21.13,0,32.61-8.35,32.61-19.57c0-10.96-8.87-15.65-38.61-24.52
					c-42-12.52-59.22-28.44-59.22-55.31c0-24,17.48-52.7,64.44-52.7c27.91,0,56.35,14.87,61.57,40.96l-30.78,11.48
					c-2.35-11.48-17.22-17.74-30.52-18c-14.61-0.26-27.91,4.96-27.91,16.96c0,8.61,6.78,14.09,35.48,22.96
					C1672.56,406.66,1699.17,418.66,1699.17,452.57z"/>
				<path class="st1" d="M1948.48,414.49c0,52.44-36,93.13-88.44,93.13s-88.7-40.7-88.7-93.13c0-52.44,36.26-93.13,88.7-93.13
					S1948.48,362.05,1948.48,414.49z M1913,414.49c0-33.39-19.83-58.44-52.96-58.44c-33.39,0-53.22,25.04-53.22,58.44
					c0,33.13,19.83,58.18,53.22,58.18C1893.17,472.66,1913,447.62,1913,414.49z"/>
				<path class="st1" d="M2005.35,356.31v41.48h67.57v33.13h-67.57v74.61h-34.7V322.92h119.74v33.39H2005.35z"/>
			</g>
			<g>
				<path class="st2" d="M815.16,619.03c0,20.23-14.13,37.5-44.47,37.5c-23.89,0-45.52-12.73-49.01-30.35l21.28-8.2
					c2.27,9.24,12.91,15,25.64,15c14.13,0,21.8-5.58,21.8-13.08c0-7.33-5.93-10.46-25.81-16.39c-28.08-8.37-39.59-19.01-39.59-36.97
					c0-16.05,11.69-35.23,43.08-35.23c18.66,0,37.67,9.94,41.16,27.38l-20.58,7.67c-1.57-7.67-11.51-11.86-20.41-12.03
					c-9.77-0.17-18.66,3.31-18.66,11.34c0,5.75,4.53,9.42,23.72,15.35C797.37,588.34,815.16,596.36,815.16,619.03z"/>
				<path class="st2" d="M896.61,626.88h-41.33l-9.42,27.56h-26.34l44.65-122.09h23.72l44.65,122.09H906.2L896.61,626.88z
					 M888.93,604.73l-12.91-37.5l-12.91,37.5H888.93z"/>
				<path class="st2" d="M1038.92,532.35v122.09h-22.85l-49.01-79.18v79.18h-23.2V532.35h22.67l49.18,79.18v-79.18H1038.92z"/>
				<path class="st2" d="M1206.7,593.4c0,35.75-23.54,61.04-64.01,61.04h-39.24V532.35h39.24
					C1183.15,532.35,1206.7,557.64,1206.7,593.4z M1183.5,593.4c0-23.2-15.7-38.72-41.33-38.72h-15.52v77.61h15.52
					C1167.8,632.29,1183.5,616.77,1183.5,593.4z"/>
				<path class="st2" d="M1243.84,532.35v122.09h-23.2V532.35H1243.84z"/>
				<path class="st2" d="M1344.12,632.29v22.15h-81.1V532.35h80.05v22.32h-56.86v27.73h51.45v22.15h-51.45v27.73H1344.12z"/>
				<path class="st2" d="M1465.33,588.51v38.89c-10.12,17.44-28.08,28.43-50.58,28.43c-35.06,0-59.3-27.21-59.3-62.26
					c0-35.06,24.24-62.26,59.3-62.26c22.5,0,40.46,11.16,50.58,28.6l-21.1,10.46c-5.93-9.77-16.05-15.87-29.47-15.87
					c-22.32,0-35.58,16.74-35.58,39.07c0,22.15,13.25,38.89,35.58,38.89c11.86,0,21.1-4.19,27.21-11.69v-13.6h-26.86v-18.66H1465.33
					z"/>
				<path class="st2" d="M1597.71,593.57c0,35.06-24.07,62.26-59.12,62.26c-35.06,0-59.3-27.21-59.3-62.26
					c0-35.06,24.24-62.26,59.3-62.26C1573.64,531.31,1597.71,558.52,1597.71,593.57z M1573.99,593.57
					c0-22.32-13.25-39.07-35.4-39.07c-22.32,0-35.58,16.74-35.58,39.07c0,22.15,13.25,38.89,35.58,38.89
					C1560.73,632.46,1573.99,615.72,1573.99,593.57z"/>
			</g>
		</g>
	</g>
</g>
</svg>
